<svg width="550" height="372" xmlns="http://www.w3.org/2000/svg">

 <g>
  <title>background</title>
  <rect fill="none" id="canvas_background" height="402" width="582" y="-1" x="-1"/>
 </g>
 <g>
  <title>Layer 1</title>
  <path id="svg_2" d="m127.62925,8.97238c5.31,-2.26 10.78,-4.84 16.66,-4.88c116.06,0.03 232.12,0.03 348.17,0c8.88,0.79 18.19,4.62 23.31,12.26c6.09819,7.56303 3.31,20.59 3.04,23.34c-60.90635,262.50888 -56.08479,241.36787 -73.73,310.5c-4.19684,18.35248 -26.88,17.27 -36.71,16.86c-114.34,-0.09 -228.69,-0.02 -343.04,-0.03c-5.98,-0.19 -12.05,-1.82 -17.11,-5.06c-7.37,-4.51 -11.67488,-13.37376 -11.24,-21.56c63.63,-283.21 65.44,-289.31 66.2,-295.6c1.68,-8.39 3.84,-17.11 9.56,-23.76c4.22,-4.82 8.87,-9.56 14.89,-12.07z" fill="#000000"/>
  <path id="svg_9" d="m217.965946,56.734419c6.21,-1.3 13.29,-1.72 18.86,1.87c5.29,3.23 9.05,8.26 13.27,12.7c9.81,9.9 18.21,21.08 27.93,31.07c17.39,19.28 34.99,38.37 52.11,57.88c5.89,6.14 10.9,13.05 16.88,19.11c2.79,3.14 6.07,6.1 7.67,10.07c1.43,5.94 0.62,12.67 -3.18,17.6c-4.18,5.54 -10.37,8.96 -15.73,13.21c-5.43,4.3 -11.14,8.23 -16.82,12.18c-26.15,19.22 -52.45,38.23 -78.74,57.26c-17.29,12.73 -34.69,25.32 -52.24,37.69c-5.83,3.9 -11.05,9.06 -17.92,11.07c-4.81,1.21 -9.88,1.44 -14.78,0.65c-7.26,-0.88 -12.45,-8.11 -12.73,-15.09c0.64,-5.97 3.75,-11.69 8.35,-15.54c13.23,-10.58 27.38,-19.91 40.87,-30.14c20.79,-15.22 41.68,-30.29 62.4,-45.6c9.82,-7.21 19.89,-14.06 29.55,-21.48c4.54,-3.59 9.73,-6.32 14.02,-10.21c1.87,-1.27 0.99,-3.67 -0.29,-5c-11.79,-13.86 -25.01,-26.42 -37.13,-39.99c-19.6,-21.38 -39.64,-42.36 -58.91,-64.05c-3.85,-4.12 -5.81,-10.01 -4.28,-15.56c2.66,-9.73 11.36,-16.97 20.84,-19.7z" fill="#ffffff"/>
  <path id="svg_10" d="m271.70084,295.46682c52.50941,-0.48411 55.50564,-0.04736 85.51863,-0.45676c15.92342,0.71385 18.96137,10.77676 19.41137,16.11676c0.93,7.95 -3.09,15.9 -9.52,20.5c-5.83,4.87 -13.5,6.81 -20.98,6.63c-7.01,-0.34 -14,0.51 -21,0.41c-17.35,-0.09 -34.69,0.02 -52.04,-0.03c-6.89,-0.34 -14.8,-0.73 -19.84,-6.12c-5.68,-5.22 -6.02,-14.07 -3.08,-20.79c3.34,-9.1 11.98162,-16.47513 21.53,-16.26z" fill="#ffffff"/>
 </g>
</svg>